<svg width="110" height="98" viewBox="0 0 110 98" fill="none" xmlns="http://www.w3.org/2000/svg">
<path d="M103.008 35.4977C102.281 31.1141 97.9518 27.493 97.8579 27.4089L105.979 9.94131C107.561 6.53773 106.248 2.39886 103.05 0.714222C101.507 -0.0990521 99.7528 -0.222324 98.112 0.367734C96.4713 0.957792 95.147 2.18799 94.3828 3.83147L85.7291 22.4441C83.9208 21.7875 82.1648 20.8064 80.4957 19.5055C77.5281 17.1933 74.007 15.9883 70.3214 16.012C67.3093 16.034 64.4808 16.915 62.0278 18.4322C61.8146 18.1202 61.5785 17.8243 61.3183 17.5473L56.8223 12.7617C55.5139 11.3687 53.7743 10.6018 51.9241 10.6018C50.0738 10.6018 48.334 11.3689 47.0259 12.7615L44.6316 15.3102L42.2374 12.7615C40.929 11.3687 39.1894 10.6018 37.3392 10.6018C35.489 10.6018 33.7494 11.3689 32.441 12.7615L27.9449 17.5476C26.8357 18.7284 26.1478 20.2644 25.9664 21.8973C17.0822 26.0257 18.0078 34.9721 18.0402 35.3621H9.38137C9.13344 29.3419 12.667 25.2629 17.1153 24.5779C17.9962 24.4423 18.6068 23.5723 18.4794 22.6346C18.352 21.6972 17.5246 20.9877 16.6538 21.1826C5.74965 23.6243 6.11832 35.1963 6.17203 35.6955C2.61637 36.7546 0 40.2328 0 44.3515C0 48.4581 2.6009 51.9276 6.14023 52.9984C6.26312 56.2876 6.61074 59.5355 7.17729 62.6715C10.7746 82.5841 27.2875 97.0371 46.4413 97.0371H63.5585C82.7123 97.0371 99.2252 82.5843 102.823 62.6715C103.389 59.5352 103.737 56.2876 103.86 52.9984C107.399 51.9274 110 48.4579 110 44.3515C110 39.9222 106.974 36.2332 103.008 35.4977ZM99.5139 35.3618H94.1604L96.3781 30.5922C97.7189 31.9441 98.7804 33.5626 99.5139 35.3618ZM70.3435 19.4426C73.3292 19.4234 76.1875 20.4 78.5924 22.2738C80.404 23.6853 82.3129 24.7808 84.2873 25.5456L82.543 29.2975C82.1483 30.1467 82.4749 31.1756 83.2724 31.5958C84.0701 32.0159 85.0367 31.668 85.4311 30.8193L97.2709 5.35327C97.6531 4.53085 98.3183 3.91471 99.1435 3.61786C99.9687 3.32123 100.849 3.38183 101.621 3.7887C102.393 4.19556 102.972 4.90363 103.251 5.78209C103.53 6.66054 103.473 7.59732 103.091 8.41928L90.5646 35.3618H56.6485C56.6274 35.0654 56.6139 34.7674 56.6139 34.4676C56.6139 26.2383 62.773 19.498 70.3435 19.4426ZM49.3047 15.1876C50.0045 14.4424 50.9347 14.0324 51.9243 14.0324C52.9137 14.0324 53.8441 14.4424 54.5437 15.1876C54.5437 15.1876 59.2921 20.2698 59.4026 20.4295C59.0848 20.7229 58.7772 21.0282 58.48 21.3454C58.3928 21.2748 52.9603 17.1636 47.653 18.759C47.4338 18.3986 47.1844 18.0585 46.9062 17.7406L49.3047 15.1876ZM46.5549 22.5397C50.2197 21.4028 53.6925 21.8923 56.3338 23.9186C56.3647 23.9424 56.3948 23.9678 56.4255 23.992C54.5155 26.9736 53.3912 30.5844 53.3912 34.4676C53.3912 34.7667 53.4022 35.0647 53.4185 35.3618H34.0381C34.6719 33.6157 35.5272 31.9363 36.6008 30.3509C39.2113 26.4956 42.7464 23.7217 46.5549 22.5397ZM34.7198 15.1873C35.4196 14.4424 36.3498 14.0324 37.3392 14.0324C38.3288 14.0324 39.259 14.4424 39.9588 15.1876L44.2466 19.7518C41.9818 20.663 39.8307 22.0384 37.8969 23.8033C34.0545 20.4796 29.7726 21.06 29.4968 21.0797C29.6768 20.6737 34.7198 15.1873 34.7198 15.1873ZM30.3308 24.4771C32.2261 24.4771 34.0474 25.096 35.5745 26.2406C35.018 26.9078 34.4859 27.6078 33.9866 28.3452C32.5007 30.5394 31.3719 32.8953 30.617 35.3623H21.2755C21.0033 29.3416 25.3006 24.4771 30.3308 24.4771ZM101.555 49.9109H46.1379C45.248 49.9109 44.5266 50.6786 44.5266 51.6262C44.5266 52.5737 45.248 53.3414 46.1379 53.3414H100.618C100.486 56.2947 100.167 59.208 99.6579 62.0238C96.3518 80.324 81.1699 93.6065 63.5585 93.6065H46.4413C28.8299 93.6065 13.6479 80.324 10.3419 62.0238C9.83318 59.2084 9.51328 56.2949 9.38201 53.3414H39.7156C40.6055 53.3414 41.3269 52.5737 41.3269 51.6262C41.3269 50.6786 40.6055 49.9109 39.7156 49.9109H8.44486C5.56531 49.9109 3.22266 47.4169 3.22266 44.3515C3.22266 41.2864 5.56531 38.7924 8.44486 38.7924H91.5563C91.5587 38.7924 91.5612 38.7929 91.5636 38.7929C91.5656 38.7929 91.5677 38.7924 91.5696 38.7924H101.555C104.434 38.7924 106.777 41.2862 106.777 44.3515C106.777 47.4169 104.435 49.9109 101.555 49.9109Z" fill="white"/>
<path d="M68.5365 61.7575H59.7582C57.961 61.7575 56.4988 63.3141 56.4988 65.2272V69.8999C56.4988 74.3893 59.9298 78.0417 64.1472 78.0417C68.3646 78.0417 71.7957 74.3893 71.7959 69.8999V65.2272C71.7959 63.3141 70.3339 61.7575 68.5365 61.7575ZM64.1472 74.6112C61.7068 74.6112 59.7214 72.4975 59.7214 69.8999V65.2272C59.7214 65.2059 68.5365 65.1883 68.5365 65.1881C68.5567 65.1881 68.5732 69.8999 68.5732 69.8999C68.5732 72.4977 66.5876 74.6112 64.1472 74.6112Z" fill="white"/>
<path d="M81.4766 60.6249C80.5865 60.6249 79.8652 61.3929 79.8652 62.3402V65.1878C79.8652 66.1351 80.5865 66.9031 81.4766 66.9031C82.3667 66.9031 83.0879 66.1351 83.0879 65.1878V62.3402C83.0879 61.3929 82.3667 60.6249 81.4766 60.6249Z" fill="white"/>
<path d="M46.8186 60.6249C45.9285 60.6249 45.2073 61.3929 45.2073 62.3402V65.1878C45.2073 66.1351 45.9285 66.9031 46.8186 66.9031C47.7085 66.9031 48.4299 66.1351 48.4299 65.1878V62.3402C48.4299 61.3929 47.7087 60.6249 46.8186 60.6249Z" fill="white"/>
</svg>
